<mxfile host="app.diagrams.net" modified="2023-07-25T14:45:50.116Z" agent="Mozilla/5.0 (Windows NT 10.0; Win64; x64) AppleWebKit/537.36 (KHTML, like Gecko) Chrome/114.0.0.0 Safari/537.36" etag="yFUIt3CknIZ62m8JGC5M" version="21.3.6" type="device">
  <diagram id="C5RBs43oDa-KdzZeNtuy" name="Page-1">
    <mxGraphModel dx="1469" dy="881" grid="1" gridSize="11" guides="1" tooltips="1" connect="1" arrows="1" fold="1" page="1" pageScale="1" pageWidth="3300" pageHeight="2339" math="0" shadow="0">
      <root>
        <mxCell id="WIyWlLk6GJQsqaUBKTNV-0" />
        <mxCell id="WIyWlLk6GJQsqaUBKTNV-1" parent="WIyWlLk6GJQsqaUBKTNV-0" />
        <mxCell id="5X2I-gzt8t5ni0eGybi9-255" style="edgeStyle=orthogonalEdgeStyle;rounded=0;orthogonalLoop=1;jettySize=auto;html=1;entryX=0.5;entryY=0;entryDx=0;entryDy=0;" edge="1" parent="WIyWlLk6GJQsqaUBKTNV-1" source="5X2I-gzt8t5ni0eGybi9-253" target="5X2I-gzt8t5ni0eGybi9-254">
          <mxGeometry relative="1" as="geometry" />
        </mxCell>
        <mxCell id="5X2I-gzt8t5ni0eGybi9-253" value="START" style="rounded=1;whiteSpace=wrap;html=1;" vertex="1" parent="WIyWlLk6GJQsqaUBKTNV-1">
          <mxGeometry x="396" y="33" width="120" height="60" as="geometry" />
        </mxCell>
        <mxCell id="5X2I-gzt8t5ni0eGybi9-257" style="edgeStyle=orthogonalEdgeStyle;rounded=0;orthogonalLoop=1;jettySize=auto;html=1;entryX=0.5;entryY=0;entryDx=0;entryDy=0;" edge="1" parent="WIyWlLk6GJQsqaUBKTNV-1" source="5X2I-gzt8t5ni0eGybi9-254" target="5X2I-gzt8t5ni0eGybi9-256">
          <mxGeometry relative="1" as="geometry" />
        </mxCell>
        <mxCell id="5X2I-gzt8t5ni0eGybi9-254" value="string array [6] =&amp;nbsp;{&quot;they&quot; ,&quot;are&quot;, &quot;not&quot;, &quot;stupid&quot;, &quot;idiots&quot;, &quot;no&quot;};&amp;nbsp;" style="shape=parallelogram;perimeter=parallelogramPerimeter;whiteSpace=wrap;html=1;fixedSize=1;" vertex="1" parent="WIyWlLk6GJQsqaUBKTNV-1">
          <mxGeometry x="352" y="121" width="341" height="60" as="geometry" />
        </mxCell>
        <mxCell id="5X2I-gzt8t5ni0eGybi9-286" style="edgeStyle=orthogonalEdgeStyle;rounded=0;orthogonalLoop=1;jettySize=auto;html=1;entryX=0;entryY=0.5;entryDx=0;entryDy=0;" edge="1" parent="WIyWlLk6GJQsqaUBKTNV-1" source="5X2I-gzt8t5ni0eGybi9-256" target="5X2I-gzt8t5ni0eGybi9-285">
          <mxGeometry relative="1" as="geometry" />
        </mxCell>
        <mxCell id="5X2I-gzt8t5ni0eGybi9-256" value="PrintArray(array)" style="rounded=0;whiteSpace=wrap;html=1;" vertex="1" parent="WIyWlLk6GJQsqaUBKTNV-1">
          <mxGeometry x="479" y="220" width="120" height="60" as="geometry" />
        </mxCell>
        <mxCell id="5X2I-gzt8t5ni0eGybi9-258" value="" style="swimlane;startSize=0;" vertex="1" parent="WIyWlLk6GJQsqaUBKTNV-1">
          <mxGeometry x="231" y="363" width="495" height="451" as="geometry">
            <mxRectangle x="-55" y="319" width="55" height="44" as="alternateBounds" />
          </mxGeometry>
        </mxCell>
        <mxCell id="5X2I-gzt8t5ni0eGybi9-259" value="Method PrintArray(array)" style="shape=process;whiteSpace=wrap;html=1;backgroundOutline=1;" vertex="1" parent="5X2I-gzt8t5ni0eGybi9-258">
          <mxGeometry x="197" y="11" width="120" height="60" as="geometry" />
        </mxCell>
        <mxCell id="5X2I-gzt8t5ni0eGybi9-265" style="edgeStyle=orthogonalEdgeStyle;rounded=0;orthogonalLoop=1;jettySize=auto;html=1;entryX=0.5;entryY=0;entryDx=0;entryDy=0;" edge="1" parent="5X2I-gzt8t5ni0eGybi9-258" source="5X2I-gzt8t5ni0eGybi9-260" target="5X2I-gzt8t5ni0eGybi9-261">
          <mxGeometry relative="1" as="geometry" />
        </mxCell>
        <mxCell id="5X2I-gzt8t5ni0eGybi9-260" value="string [] array&lt;br&gt;i=0" style="shape=parallelogram;perimeter=parallelogramPerimeter;whiteSpace=wrap;html=1;fixedSize=1;" vertex="1" parent="5X2I-gzt8t5ni0eGybi9-258">
          <mxGeometry x="197" y="88" width="120" height="60" as="geometry" />
        </mxCell>
        <mxCell id="5X2I-gzt8t5ni0eGybi9-269" style="edgeStyle=orthogonalEdgeStyle;rounded=0;orthogonalLoop=1;jettySize=auto;html=1;entryX=0;entryY=0.5;entryDx=0;entryDy=0;" edge="1" parent="5X2I-gzt8t5ni0eGybi9-258" source="5X2I-gzt8t5ni0eGybi9-261" target="5X2I-gzt8t5ni0eGybi9-268">
          <mxGeometry relative="1" as="geometry" />
        </mxCell>
        <mxCell id="5X2I-gzt8t5ni0eGybi9-261" value="i&amp;lt;array.length?" style="rhombus;whiteSpace=wrap;html=1;" vertex="1" parent="5X2I-gzt8t5ni0eGybi9-258">
          <mxGeometry x="197" y="187" width="124" height="80" as="geometry" />
        </mxCell>
        <mxCell id="5X2I-gzt8t5ni0eGybi9-262" value="Write array[i]&lt;br&gt;i++" style="rounded=0;whiteSpace=wrap;html=1;" vertex="1" parent="5X2I-gzt8t5ni0eGybi9-258">
          <mxGeometry x="199" y="330" width="120" height="55" as="geometry" />
        </mxCell>
        <mxCell id="5X2I-gzt8t5ni0eGybi9-264" value="yes" style="text;html=1;align=center;verticalAlign=middle;resizable=0;points=[];autosize=1;strokeColor=none;fillColor=none;" vertex="1" parent="5X2I-gzt8t5ni0eGybi9-258">
          <mxGeometry x="253.5" y="269.5" width="44" height="33" as="geometry" />
        </mxCell>
        <mxCell id="5X2I-gzt8t5ni0eGybi9-268" value="end" style="rounded=1;whiteSpace=wrap;html=1;" vertex="1" parent="5X2I-gzt8t5ni0eGybi9-258">
          <mxGeometry x="407" y="209" width="55" height="48" as="geometry" />
        </mxCell>
        <mxCell id="5X2I-gzt8t5ni0eGybi9-281" value="" style="endArrow=classic;html=1;rounded=0;" edge="1" parent="5X2I-gzt8t5ni0eGybi9-258" source="5X2I-gzt8t5ni0eGybi9-261" target="5X2I-gzt8t5ni0eGybi9-262">
          <mxGeometry width="50" height="50" relative="1" as="geometry">
            <mxPoint x="232" y="319.5" as="sourcePoint" />
            <mxPoint x="282" y="269.5" as="targetPoint" />
          </mxGeometry>
        </mxCell>
        <mxCell id="5X2I-gzt8t5ni0eGybi9-283" value="" style="endArrow=classic;html=1;rounded=0;exitX=0;exitY=0.5;exitDx=0;exitDy=0;entryX=0;entryY=0.5;entryDx=0;entryDy=0;" edge="1" parent="5X2I-gzt8t5ni0eGybi9-258" source="5X2I-gzt8t5ni0eGybi9-262" target="5X2I-gzt8t5ni0eGybi9-261">
          <mxGeometry width="50" height="50" relative="1" as="geometry">
            <mxPoint x="132" y="369" as="sourcePoint" />
            <mxPoint x="182" y="319" as="targetPoint" />
            <Array as="points">
              <mxPoint x="77" y="297" />
            </Array>
          </mxGeometry>
        </mxCell>
        <mxCell id="5X2I-gzt8t5ni0eGybi9-270" value="no" style="text;html=1;align=center;verticalAlign=middle;resizable=0;points=[];autosize=1;strokeColor=none;fillColor=none;" vertex="1" parent="5X2I-gzt8t5ni0eGybi9-258">
          <mxGeometry x="341" y="187" width="33" height="33" as="geometry" />
        </mxCell>
        <mxCell id="5X2I-gzt8t5ni0eGybi9-284" style="edgeStyle=orthogonalEdgeStyle;rounded=0;orthogonalLoop=1;jettySize=auto;html=1;exitX=0.5;exitY=1;exitDx=0;exitDy=0;" edge="1" parent="WIyWlLk6GJQsqaUBKTNV-1" source="5X2I-gzt8t5ni0eGybi9-258" target="5X2I-gzt8t5ni0eGybi9-258">
          <mxGeometry relative="1" as="geometry" />
        </mxCell>
        <mxCell id="5X2I-gzt8t5ni0eGybi9-332" style="edgeStyle=orthogonalEdgeStyle;rounded=0;orthogonalLoop=1;jettySize=auto;html=1;entryX=0;entryY=0.5;entryDx=0;entryDy=0;" edge="1" parent="WIyWlLk6GJQsqaUBKTNV-1" source="5X2I-gzt8t5ni0eGybi9-285" target="5X2I-gzt8t5ni0eGybi9-331">
          <mxGeometry relative="1" as="geometry" />
        </mxCell>
        <mxCell id="5X2I-gzt8t5ni0eGybi9-285" value="&lt;div style=&quot;line-height: 19px;&quot;&gt;CreateFillAndPrintNewArray(array)&lt;/div&gt;" style="rounded=0;whiteSpace=wrap;html=1;" vertex="1" parent="WIyWlLk6GJQsqaUBKTNV-1">
          <mxGeometry x="1056" y="220" width="242" height="60" as="geometry" />
        </mxCell>
        <mxCell id="5X2I-gzt8t5ni0eGybi9-287" value="" style="swimlane;startSize=0;" vertex="1" parent="WIyWlLk6GJQsqaUBKTNV-1">
          <mxGeometry x="858" y="363" width="1331" height="770" as="geometry" />
        </mxCell>
        <mxCell id="5X2I-gzt8t5ni0eGybi9-288" value="Method CreateFillAndPrintNewArray(array)" style="shape=process;whiteSpace=wrap;html=1;backgroundOutline=1;" vertex="1" parent="5X2I-gzt8t5ni0eGybi9-287">
          <mxGeometry x="319" y="22" width="297" height="60" as="geometry" />
        </mxCell>
        <mxCell id="5X2I-gzt8t5ni0eGybi9-313" style="edgeStyle=orthogonalEdgeStyle;rounded=0;orthogonalLoop=1;jettySize=auto;html=1;" edge="1" parent="5X2I-gzt8t5ni0eGybi9-287" source="5X2I-gzt8t5ni0eGybi9-289" target="5X2I-gzt8t5ni0eGybi9-290">
          <mxGeometry relative="1" as="geometry" />
        </mxCell>
        <mxCell id="5X2I-gzt8t5ni0eGybi9-289" value="&amp;nbsp;size = 0&lt;br&gt;j = 0" style="shape=parallelogram;perimeter=parallelogramPerimeter;whiteSpace=wrap;html=1;fixedSize=1;" vertex="1" parent="5X2I-gzt8t5ni0eGybi9-287">
          <mxGeometry x="194.5" y="133.75" width="120" height="60" as="geometry" />
        </mxCell>
        <mxCell id="5X2I-gzt8t5ni0eGybi9-294" value="" style="edgeStyle=orthogonalEdgeStyle;rounded=0;orthogonalLoop=1;jettySize=auto;html=1;" edge="1" parent="5X2I-gzt8t5ni0eGybi9-287" source="5X2I-gzt8t5ni0eGybi9-290" target="5X2I-gzt8t5ni0eGybi9-293">
          <mxGeometry relative="1" as="geometry" />
        </mxCell>
        <mxCell id="5X2I-gzt8t5ni0eGybi9-311" style="edgeStyle=orthogonalEdgeStyle;rounded=0;orthogonalLoop=1;jettySize=auto;html=1;" edge="1" parent="5X2I-gzt8t5ni0eGybi9-287" source="5X2I-gzt8t5ni0eGybi9-290" target="5X2I-gzt8t5ni0eGybi9-310">
          <mxGeometry relative="1" as="geometry">
            <Array as="points">
              <mxPoint x="599" y="267" />
            </Array>
          </mxGeometry>
        </mxCell>
        <mxCell id="5X2I-gzt8t5ni0eGybi9-290" value="j&amp;lt;array.length?" style="rhombus;whiteSpace=wrap;html=1;" vertex="1" parent="5X2I-gzt8t5ni0eGybi9-287">
          <mxGeometry x="160" y="226.75" width="189" height="80" as="geometry" />
        </mxCell>
        <mxCell id="5X2I-gzt8t5ni0eGybi9-296" value="" style="edgeStyle=orthogonalEdgeStyle;rounded=0;orthogonalLoop=1;jettySize=auto;html=1;" edge="1" parent="5X2I-gzt8t5ni0eGybi9-287" source="5X2I-gzt8t5ni0eGybi9-293" target="5X2I-gzt8t5ni0eGybi9-295">
          <mxGeometry relative="1" as="geometry" />
        </mxCell>
        <mxCell id="5X2I-gzt8t5ni0eGybi9-293" value="&lt;div style=&quot;line-height: 19px;&quot;&gt;arr[j].Length&amp;lt;=3?&lt;/div&gt;" style="rhombus;whiteSpace=wrap;html=1;" vertex="1" parent="5X2I-gzt8t5ni0eGybi9-287">
          <mxGeometry x="170.75" y="386.75" width="167.5" height="93" as="geometry" />
        </mxCell>
        <mxCell id="5X2I-gzt8t5ni0eGybi9-300" value="" style="edgeStyle=orthogonalEdgeStyle;rounded=0;orthogonalLoop=1;jettySize=auto;html=1;" edge="1" parent="5X2I-gzt8t5ni0eGybi9-287" source="5X2I-gzt8t5ni0eGybi9-295">
          <mxGeometry relative="1" as="geometry">
            <mxPoint x="110.00000000000091" y="463.25" as="targetPoint" />
          </mxGeometry>
        </mxCell>
        <mxCell id="5X2I-gzt8t5ni0eGybi9-295" value="size++" style="whiteSpace=wrap;html=1;" vertex="1" parent="5X2I-gzt8t5ni0eGybi9-287">
          <mxGeometry x="194.5" y="576.25" width="120" height="60" as="geometry" />
        </mxCell>
        <mxCell id="5X2I-gzt8t5ni0eGybi9-302" style="edgeStyle=orthogonalEdgeStyle;rounded=0;orthogonalLoop=1;jettySize=auto;html=1;entryX=0;entryY=0.5;entryDx=0;entryDy=0;" edge="1" parent="5X2I-gzt8t5ni0eGybi9-287" source="5X2I-gzt8t5ni0eGybi9-299" target="5X2I-gzt8t5ni0eGybi9-290">
          <mxGeometry relative="1" as="geometry">
            <Array as="points">
              <mxPoint x="66" y="267" />
            </Array>
          </mxGeometry>
        </mxCell>
        <mxCell id="5X2I-gzt8t5ni0eGybi9-299" value="j++" style="whiteSpace=wrap;html=1;" vertex="1" parent="5X2I-gzt8t5ni0eGybi9-287">
          <mxGeometry x="22" y="398.25" width="120" height="60" as="geometry" />
        </mxCell>
        <mxCell id="5X2I-gzt8t5ni0eGybi9-307" value="" style="endArrow=none;html=1;rounded=0;entryX=1;entryY=0.5;entryDx=0;entryDy=0;" edge="1" parent="5X2I-gzt8t5ni0eGybi9-287" source="5X2I-gzt8t5ni0eGybi9-299" target="5X2I-gzt8t5ni0eGybi9-293">
          <mxGeometry width="50" height="50" relative="1" as="geometry">
            <mxPoint x="297" y="380" as="sourcePoint" />
            <mxPoint x="347" y="330" as="targetPoint" />
            <Array as="points">
              <mxPoint x="77" y="693" />
              <mxPoint x="495" y="693" />
              <mxPoint x="495" y="433" />
            </Array>
          </mxGeometry>
        </mxCell>
        <mxCell id="5X2I-gzt8t5ni0eGybi9-315" value="" style="edgeStyle=orthogonalEdgeStyle;rounded=0;orthogonalLoop=1;jettySize=auto;html=1;" edge="1" parent="5X2I-gzt8t5ni0eGybi9-287" source="5X2I-gzt8t5ni0eGybi9-310" target="5X2I-gzt8t5ni0eGybi9-314">
          <mxGeometry relative="1" as="geometry">
            <Array as="points">
              <mxPoint x="599" y="264" />
            </Array>
          </mxGeometry>
        </mxCell>
        <mxCell id="5X2I-gzt8t5ni0eGybi9-310" value="IndArr2 = 0&lt;br&gt;string [size] arr2&lt;br&gt;i=0" style="shape=parallelogram;perimeter=parallelogramPerimeter;whiteSpace=wrap;html=1;fixedSize=1;" vertex="1" parent="5X2I-gzt8t5ni0eGybi9-287">
          <mxGeometry x="539" y="143" width="120" height="60.38" as="geometry" />
        </mxCell>
        <mxCell id="5X2I-gzt8t5ni0eGybi9-312" value="no" style="text;html=1;align=center;verticalAlign=middle;resizable=0;points=[];autosize=1;strokeColor=none;fillColor=none;" vertex="1" parent="5X2I-gzt8t5ni0eGybi9-287">
          <mxGeometry x="363" y="231" width="33" height="33" as="geometry" />
        </mxCell>
        <mxCell id="5X2I-gzt8t5ni0eGybi9-297" value="yes" style="text;html=1;align=center;verticalAlign=middle;resizable=0;points=[];autosize=1;strokeColor=none;fillColor=none;" vertex="1" parent="5X2I-gzt8t5ni0eGybi9-287">
          <mxGeometry x="253" y="319" width="44" height="33" as="geometry" />
        </mxCell>
        <mxCell id="5X2I-gzt8t5ni0eGybi9-298" value="yes" style="text;html=1;align=center;verticalAlign=middle;resizable=0;points=[];autosize=1;strokeColor=none;fillColor=none;" vertex="1" parent="5X2I-gzt8t5ni0eGybi9-287">
          <mxGeometry x="253" y="495" width="44" height="33" as="geometry" />
        </mxCell>
        <mxCell id="5X2I-gzt8t5ni0eGybi9-308" value="no" style="text;html=1;align=center;verticalAlign=middle;resizable=0;points=[];autosize=1;strokeColor=none;fillColor=none;" vertex="1" parent="5X2I-gzt8t5ni0eGybi9-287">
          <mxGeometry x="363" y="398.25" width="33" height="33" as="geometry" />
        </mxCell>
        <mxCell id="5X2I-gzt8t5ni0eGybi9-317" value="" style="edgeStyle=orthogonalEdgeStyle;rounded=0;orthogonalLoop=1;jettySize=auto;html=1;" edge="1" parent="5X2I-gzt8t5ni0eGybi9-287" source="5X2I-gzt8t5ni0eGybi9-314" target="5X2I-gzt8t5ni0eGybi9-316">
          <mxGeometry relative="1" as="geometry" />
        </mxCell>
        <mxCell id="5X2I-gzt8t5ni0eGybi9-333" style="edgeStyle=orthogonalEdgeStyle;rounded=0;orthogonalLoop=1;jettySize=auto;html=1;entryX=0;entryY=0.5;entryDx=0;entryDy=0;" edge="1" parent="5X2I-gzt8t5ni0eGybi9-287" source="5X2I-gzt8t5ni0eGybi9-314" target="5X2I-gzt8t5ni0eGybi9-329">
          <mxGeometry relative="1" as="geometry" />
        </mxCell>
        <mxCell id="5X2I-gzt8t5ni0eGybi9-314" value="i&amp;lt;array.length?" style="rhombus;whiteSpace=wrap;html=1;" vertex="1" parent="5X2I-gzt8t5ni0eGybi9-287">
          <mxGeometry x="825" y="220" width="198" height="86.75" as="geometry" />
        </mxCell>
        <mxCell id="5X2I-gzt8t5ni0eGybi9-319" value="" style="edgeStyle=orthogonalEdgeStyle;rounded=0;orthogonalLoop=1;jettySize=auto;html=1;" edge="1" parent="5X2I-gzt8t5ni0eGybi9-287" source="5X2I-gzt8t5ni0eGybi9-316" target="5X2I-gzt8t5ni0eGybi9-318">
          <mxGeometry relative="1" as="geometry" />
        </mxCell>
        <mxCell id="5X2I-gzt8t5ni0eGybi9-316" value="arr[i].Length&amp;lt;=3?" style="rhombus;whiteSpace=wrap;html=1;" vertex="1" parent="5X2I-gzt8t5ni0eGybi9-287">
          <mxGeometry x="809.5" y="384.13" width="229" height="88.25" as="geometry" />
        </mxCell>
        <mxCell id="5X2I-gzt8t5ni0eGybi9-322" value="" style="edgeStyle=orthogonalEdgeStyle;rounded=0;orthogonalLoop=1;jettySize=auto;html=1;" edge="1" parent="5X2I-gzt8t5ni0eGybi9-287" source="5X2I-gzt8t5ni0eGybi9-318" target="5X2I-gzt8t5ni0eGybi9-321">
          <mxGeometry relative="1" as="geometry" />
        </mxCell>
        <mxCell id="5X2I-gzt8t5ni0eGybi9-318" value="&lt;div style=&quot;line-height: 19px;&quot;&gt;arr2[IndArr2] = arr[i]&lt;/div&gt;&lt;div style=&quot;line-height: 19px;&quot;&gt;&lt;div style=&quot;line-height: 19px;&quot;&gt;IndArr2++&lt;/div&gt;&lt;/div&gt;" style="whiteSpace=wrap;html=1;" vertex="1" parent="5X2I-gzt8t5ni0eGybi9-287">
          <mxGeometry x="864" y="566.505" width="120" height="60" as="geometry" />
        </mxCell>
        <mxCell id="5X2I-gzt8t5ni0eGybi9-323" style="edgeStyle=orthogonalEdgeStyle;rounded=0;orthogonalLoop=1;jettySize=auto;html=1;entryX=0.111;entryY=0.634;entryDx=0;entryDy=0;entryPerimeter=0;" edge="1" parent="5X2I-gzt8t5ni0eGybi9-287" source="5X2I-gzt8t5ni0eGybi9-321" target="5X2I-gzt8t5ni0eGybi9-314">
          <mxGeometry relative="1" as="geometry">
            <Array as="points">
              <mxPoint x="803" y="407" />
              <mxPoint x="803" y="275" />
            </Array>
          </mxGeometry>
        </mxCell>
        <mxCell id="5X2I-gzt8t5ni0eGybi9-321" value="i++" style="whiteSpace=wrap;html=1;" vertex="1" parent="5X2I-gzt8t5ni0eGybi9-287">
          <mxGeometry x="616" y="398.245" width="120" height="60" as="geometry" />
        </mxCell>
        <mxCell id="5X2I-gzt8t5ni0eGybi9-326" value="yes" style="text;html=1;align=center;verticalAlign=middle;resizable=0;points=[];autosize=1;strokeColor=none;fillColor=none;" vertex="1" parent="5X2I-gzt8t5ni0eGybi9-287">
          <mxGeometry x="924" y="327" width="44" height="33" as="geometry" />
        </mxCell>
        <mxCell id="5X2I-gzt8t5ni0eGybi9-327" value="yes" style="text;html=1;align=center;verticalAlign=middle;resizable=0;points=[];autosize=1;strokeColor=none;fillColor=none;" vertex="1" parent="5X2I-gzt8t5ni0eGybi9-287">
          <mxGeometry x="924" y="495" width="44" height="33" as="geometry" />
        </mxCell>
        <mxCell id="5X2I-gzt8t5ni0eGybi9-329" value="PrintArray(arr2)" style="shape=document;whiteSpace=wrap;html=1;boundedLbl=1;" vertex="1" parent="5X2I-gzt8t5ni0eGybi9-287">
          <mxGeometry x="1178" y="223.38" width="120" height="80" as="geometry" />
        </mxCell>
        <mxCell id="5X2I-gzt8t5ni0eGybi9-335" value="" style="endArrow=classic;html=1;rounded=0;exitX=1;exitY=0.5;exitDx=0;exitDy=0;" edge="1" parent="5X2I-gzt8t5ni0eGybi9-287" source="5X2I-gzt8t5ni0eGybi9-316">
          <mxGeometry width="50" height="50" relative="1" as="geometry">
            <mxPoint x="352" y="237" as="sourcePoint" />
            <mxPoint x="627" y="462" as="targetPoint" />
            <Array as="points">
              <mxPoint x="1155" y="429" />
              <mxPoint x="1155" y="605" />
              <mxPoint x="1155" y="726" />
              <mxPoint x="1039" y="726" />
              <mxPoint x="627" y="726" />
              <mxPoint x="627" y="484" />
            </Array>
          </mxGeometry>
        </mxCell>
        <mxCell id="5X2I-gzt8t5ni0eGybi9-331" value="END" style="rounded=1;whiteSpace=wrap;html=1;" vertex="1" parent="WIyWlLk6GJQsqaUBKTNV-1">
          <mxGeometry x="1551" y="220" width="120" height="60" as="geometry" />
        </mxCell>
        <mxCell id="5X2I-gzt8t5ni0eGybi9-334" value="no" style="text;html=1;align=center;verticalAlign=middle;resizable=0;points=[];autosize=1;strokeColor=none;fillColor=none;" vertex="1" parent="WIyWlLk6GJQsqaUBKTNV-1">
          <mxGeometry x="1951" y="591" width="33" height="33" as="geometry" />
        </mxCell>
        <mxCell id="5X2I-gzt8t5ni0eGybi9-336" value="no" style="text;html=1;align=center;verticalAlign=middle;resizable=0;points=[];autosize=1;strokeColor=none;fillColor=none;" vertex="1" parent="WIyWlLk6GJQsqaUBKTNV-1">
          <mxGeometry x="1918" y="756" width="33" height="33" as="geometry" />
        </mxCell>
      </root>
    </mxGraphModel>
  </diagram>
</mxfile>
